<mxfile host="app.diagrams.net" modified="2021-04-01T04:29:29.851Z" agent="5.0 (Windows NT 10.0; Win64; x64) AppleWebKit/537.36 (KHTML, like Gecko) Chrome/89.0.4389.90 Safari/537.36" etag="SxehR2OptwaQnmGZ9nAp" version="14.5.4" type="github">
  <diagram id="onQUs9_CkdMHxm3CjwbV" name="Page-1">
    <mxGraphModel dx="868" dy="460" grid="1" gridSize="10" guides="1" tooltips="1" connect="1" arrows="1" fold="1" page="1" pageScale="1" pageWidth="827" pageHeight="1169" math="0" shadow="0">
      <root>
        <mxCell id="0" />
        <mxCell id="1" parent="0" />
        <mxCell id="JFrqUFY-l7XbtVwqT2pU-1" value="&lt;font size=&quot;1&quot;&gt;&lt;b style=&quot;font-size: 27px&quot;&gt;&lt;i&gt;IC/EC&lt;/i&gt;&lt;/b&gt;&lt;/font&gt;" style="rounded=0;whiteSpace=wrap;html=1;" vertex="1" parent="1">
          <mxGeometry x="290" y="150" width="220" height="70" as="geometry" />
        </mxCell>
        <mxCell id="JFrqUFY-l7XbtVwqT2pU-5" style="edgeStyle=orthogonalEdgeStyle;rounded=0;orthogonalLoop=1;jettySize=auto;html=1;exitX=1;exitY=0;exitDx=0;exitDy=0;" edge="1" parent="1" source="JFrqUFY-l7XbtVwqT2pU-3" target="JFrqUFY-l7XbtVwqT2pU-1">
          <mxGeometry relative="1" as="geometry" />
        </mxCell>
        <mxCell id="JFrqUFY-l7XbtVwqT2pU-3" value="&lt;div&gt;&lt;span style=&quot;font-family: &amp;#34;verdana&amp;#34;&quot;&gt;&lt;br&gt;&lt;/span&gt;&lt;/div&gt;&lt;div&gt;&lt;span style=&quot;font-family: &amp;#34;verdana&amp;#34;&quot;&gt;Métricas internas se recomienda aplicarse en la etapa de desarrollo de un software ya que brindan al usuario la capacidad de predecir la calidad del producto final.&lt;/span&gt;&lt;/div&gt;" style="ellipse;whiteSpace=wrap;html=1;align=center;" vertex="1" parent="1">
          <mxGeometry x="60" y="260" width="290" height="240" as="geometry" />
        </mxCell>
        <mxCell id="JFrqUFY-l7XbtVwqT2pU-7" style="edgeStyle=orthogonalEdgeStyle;rounded=0;orthogonalLoop=1;jettySize=auto;html=1;exitX=0;exitY=0;exitDx=0;exitDy=0;" edge="1" parent="1" source="JFrqUFY-l7XbtVwqT2pU-6" target="JFrqUFY-l7XbtVwqT2pU-1">
          <mxGeometry relative="1" as="geometry" />
        </mxCell>
        <mxCell id="JFrqUFY-l7XbtVwqT2pU-6" value="&lt;font face=&quot;Verdana&quot;&gt;Estas dos métricas de uso miden si un producto satisface las necesidades de los usuarios específicos para lograr objetivos específicos como la efectividad, productividad, seguridad y satisfacción en un contexto de uso especifico.&lt;/font&gt;" style="ellipse;whiteSpace=wrap;html=1;" vertex="1" parent="1">
          <mxGeometry x="460" y="260" width="290" height="240" as="geometry" />
        </mxCell>
        <mxCell id="JFrqUFY-l7XbtVwqT2pU-9" style="edgeStyle=orthogonalEdgeStyle;rounded=0;orthogonalLoop=1;jettySize=auto;html=1;exitX=0.5;exitY=1;exitDx=0;exitDy=0;entryX=0.5;entryY=0;entryDx=0;entryDy=0;" edge="1" parent="1" source="JFrqUFY-l7XbtVwqT2pU-8" target="JFrqUFY-l7XbtVwqT2pU-1">
          <mxGeometry relative="1" as="geometry" />
        </mxCell>
        <mxCell id="JFrqUFY-l7XbtVwqT2pU-8" value="&lt;font face=&quot;Verdana&quot;&gt;Métrica externas se aplican para medir la calidad del software a partir del comportamiento del sistema del que forma parte.&lt;/font&gt;" style="ellipse;whiteSpace=wrap;html=1;" vertex="1" parent="1">
          <mxGeometry x="190" y="20" width="420" height="100" as="geometry" />
        </mxCell>
      </root>
    </mxGraphModel>
  </diagram>
</mxfile>
